<?xml version="1.0" standalone="no"?>
<!DOCTYPE svg PUBLIC "-//W3C//DTD SVG 20010904//EN"
 "http://www.w3.org/TR/2001/REC-SVG-20010904/DTD/svg10.dtd">
<svg version="1.0" xmlns="http://www.w3.org/2000/svg"
 width="1644.000000pt" height="1644.000000pt" viewBox="0 0 1644.000000 1644.000000"
 preserveAspectRatio="xMidYMid meet">
<metadata>
Created by potrace 1.14, written by Peter Selinger 2001-2017
</metadata>
<g transform="translate(0.000000,1644.000000) scale(0.100000,-0.100000)"
fill="#000000" stroke="none">
<path d="M2193 11753 c2 -3558 6 -4724 15 -4838 28 -337 54 -588 81 -760 13
-80 16 -126 9 -138 -5 -10 -6 -26 -3 -37 3 -11 1 -28 -5 -40 -7 -14 -7 -20 0
-20 6 0 8 -10 4 -25 -4 -16 -2 -25 6 -25 7 0 10 -6 7 -14 -5 -13 -2 -28 21
-96 3 -8 6 -19 7 -25 2 -16 16 -68 22 -85 4 -8 7 -19 8 -25 2 -15 16 -68 22
-85 3 -8 7 -22 9 -30 2 -8 8 -37 13 -63 7 -33 7 -55 1 -68 -8 -13 -7 -19 0
-19 6 0 8 -10 4 -25 -4 -16 -2 -25 6 -25 7 0 10 -6 7 -14 -5 -13 -2 -28 21
-96 3 -8 6 -19 7 -25 2 -16 16 -68 22 -85 4 -8 7 -19 8 -25 2 -16 16 -69 22
-85 4 -8 5 -19 4 -24 -1 -4 2 -13 7 -20 6 -6 13 -26 17 -44 3 -17 10 -32 13
-32 8 0 24 -36 42 -92 6 -21 15 -40 20 -43 4 -3 11 -21 14 -40 4 -19 11 -35
16 -35 6 0 10 -9 10 -19 0 -11 4 -22 9 -25 5 -3 12 -22 15 -41 4 -19 11 -35
17 -35 6 0 8 -4 5 -9 -5 -7 -1 -21 22 -91 3 -8 6 -19 7 -25 2 -16 16 -69 22
-85 4 -8 5 -19 4 -24 -1 -4 2 -13 7 -20 5 -6 12 -23 16 -37 6 -26 36 -67 88
-118 14 -14 47 -71 73 -126 336 -712 866 -1434 1455 -1983 751 -700 1641
-1242 2720 -1657 335 -128 1046 -355 1115 -355 37 0 485 134 755 225 140 48
260 88 265 90 15 3 45 15 90 35 22 10 58 24 80 30 22 7 48 16 57 21 10 5 24 9
32 9 8 0 16 5 18 10 2 6 16 12 31 14 15 1 30 6 34 9 3 4 15 7 25 7 10 0 18 4
18 9 0 11 93 51 120 51 11 0 38 9 60 20 22 11 46 20 54 20 17 0 84 28 157 66
26 13 54 24 63 24 8 0 26 11 39 24 13 13 34 27 46 31 12 3 32 16 44 28 12 12
56 40 97 61 41 21 79 43 84 47 6 5 18 9 28 9 10 0 18 4 18 8 0 9 69 42 88 42
5 0 12 4 14 9 2 5 17 17 35 27 1599 923 2631 2127 3219 3755 30 85 57 162 59
171 2 9 17 60 34 113 184 572 311 1317 351 2045 6 119 10 1841 10 4808 l0
4622 -6030 0 -6031 0 4 -4687z"/>
</g>
</svg>
